<?xml version="1.0" standalone="no"?>
<svg viewBox="0 0 200 200" xmlns="http://www.w3.org/2000/svg">
  <path fill="#FF0066" d="M43.4,-66.1C55.8,-59.5,65.1,-46.7,72.3,-32.5C79.6,-18.3,84.8,-2.7,81.7,11C78.5,24.6,67,36.3,54.5,42.9C42.1,49.5,28.7,50.9,15.3,57.1C1.9,63.2,-11.5,74.1,-23.4,73.5C-35.3,72.8,-45.6,60.7,-50.2,47.8C-54.8,34.8,-53.6,21.2,-53.6,8.8C-53.7,-3.6,-55.1,-14.7,-53,-26.3C-51,-38,-45.5,-50.2,-36.1,-58.1C-26.7,-66,-13.4,-69.6,1.1,-71.2C15.5,-72.9,31,-72.6,43.4,-66.1Z" transform="translate(100 100)" />
</svg>
