<?xml version="1.0" standalone="no"?>
<svg viewBox="0 0 200 200" xmlns="http://www.w3.org/2000/svg">
  <path fill="#FF0066" d="M38.3,-64.5C47.3,-53.7,50.9,-39.3,56.6,-26.1C62.3,-12.8,70.1,-0.8,71.3,12.2C72.4,25.2,66.9,39.2,56.5,46.1C46.1,53,30.7,52.7,17.8,53C4.9,53.2,-5.6,53.9,-14.7,50.9C-23.9,47.9,-31.8,41.1,-43.9,34.2C-56,27.2,-72.3,20,-76.6,9.3C-80.9,-1.4,-73.1,-15.6,-63.9,-26.5C-54.7,-37.3,-44.1,-44.8,-33.3,-54.7C-22.4,-64.6,-11.2,-77,1.7,-79.6C14.6,-82.3,29.2,-75.2,38.3,-64.5Z" transform="translate(100 100)" />
</svg>
